<?xml version="1.0" encoding="iso-8859-1"?>
<!-- Generator: Adobe Illustrator 19.0.0, SVG Export Plug-In . SVG Version: 6.00 Build 0)  -->
<svg version="1.1" id="Layer_1" xmlns="http://www.w3.org/2000/svg" xmlns:xlink="http://www.w3.org/1999/xlink" x="0px" y="0px"
	 viewBox="0 0 491.232 491.232" style="enable-background:new 0 0 491.232 491.232;" xml:space="preserve">
<g>
	<path style="fill:#5E8591;" d="M341.616,344c0,8.8-7.2,15.2-15.2,15.2h-160.8c-8.8,0-15.2-7.2-15.2-15.2v-16.8
		c0-8.8,7.2-15.2,15.2-15.2h160c8.8,0,15.2,7.2,15.2,15.2V344H341.616z"/>
	<path style="fill:#5E8591;" d="M351.216,441.6c0,4.8-4,8.8-8.8,8.8l0,0c-4.8,0-8.8,0-8.8-4.8V316c0-4.8,4-8.8,8.8-8.8l0,0
		c4.8,0,8.8,4,8.8,8.8V441.6z"/>
	<path style="fill:#5E8591;" d="M158.416,446.4c0,4.8-4,4.8-8.8,4.8l0,0c-4.8,0-8.8-4-8.8-8.8V316c0-4.8,4-8.8,8.8-8.8l0,0
		c4.8,0,8.8,4,8.8,8.8V446.4z"/>
</g>
<g>
	<path style="fill:#7DA3B2;" d="M380.016,479.2c0,6.4-5.6,12-12,12l0,0c-6.4,0-12,0.8-12-5.6V318.4c0-6.4,5.6-12,12-12l0,0
		c6.4,0,12,5.6,12,12V479.2z"/>
	<path style="fill:#7DA3B2;" d="M134.416,484.8c0,6.4-5.6,5.6-12,5.6l0,0c-6.4,0-12-5.6-12-12v-160c0-6.4,5.6-12,12-12l0,0
		c6.4,0,12,5.6,12,12V484.8z"/>
	<path style="fill:#7DA3B2;" d="M380.016,320c0,3.2-3.2,6.4-6.4,6.4h-256c-3.2,0-6.4-3.2-6.4-6.4l0,0c0-3.2,3.2-6.4,6.4-6.4h256
		C377.616,314.4,380.016,316.8,380.016,320L380.016,320z"/>
</g>
<path style="fill:#79E831;" d="M358.416,94.4c0,13.6-11.2,24.8-24.8,24.8h-176c-13.6,0-24.8-11.2-24.8-24.8V24.8
	c0-13.6,11.2-24.8,24.8-24.8h176c13.6,0,24.8,11.2,24.8,24.8V94.4z"/>
<g>
	<path style="fill:#99B9C9;" d="M156.016,268c0,6.4-5.6,12-12,12l0,0c-6.4,0-12-5.6-12-12V107.2c0-6.4,5.6-12,12-12l0,0
		c6.4,0,12,5.6,12,12V268z"/>
	<path style="fill:#99B9C9;" d="M358.416,268c0,6.4-5.6,12-12,12l0,0c-6.4,0-12-5.6-12-12V107.2c0-6.4,5.6-12,12-12l0,0
		c6.4,0,12,5.6,12,12V268z"/>
</g>
<g>
	<path style="fill:#7DA3B2;" d="M346.416,96c-6.4,0-12,5.6-12,12v44c12.8-0.8,23.2-11.2,23.2-24.8V108
		C358.416,100.8,352.816,96,346.416,96z"/>
	<path style="fill:#7DA3B2;" d="M156.016,151.2v-44c0-6.4-5.6-12-12-12s-12,5.6-12,12v19.2C132.816,140,143.216,150.4,156.016,151.2
		z"/>
</g>
<path style="fill:#62D122;" d="M358.416,102.4c0,13.6-11.2,24.8-24.8,24.8h-176c-13.6,0-24.8-11.2-24.8-24.8V32.8
	c0-13.6,11.2-24.8,24.8-24.8h176c13.6,0,24.8,11.2,24.8,24.8V102.4z"/>
<path style="fill:#51B510;" d="M358.416,102.4c0,13.6-11.2,24.8-24.8,24.8h-176c-13.6,0-24.8-11.2-24.8-24.8"/>
<path style="fill:#62D122;" d="M379.216,283.2v-10.4c0-16-12.8-28.8-28.8-28.8h-208.8c-16,0-28.8,12.8-28.8,28.8v10.4H379.216z"/>
<path style="fill:#79E831;" d="M349.616,244h-208c-16,0-28.8,12.8-28.8,28.8v6.4c0-16,12.8-28.8,28.8-28.8h208
	c16,0,28.8,12.8,28.8,28.8v-6.4C379.216,256.8,365.616,244,349.616,244z"/>
<path style="fill:#51B510;" d="M385.616,309.6c0,3.2-2.4,6.4-6.4,6.4h-267.2c-3.2,0-6.4-2.4-6.4-6.4v-27.2c0-3.2,3.2-6.4,6.4-6.4
	h267.2c3.2,0,6.4,2.4,6.4,6.4V309.6z"/>
<g>
</g>
<g>
</g>
<g>
</g>
<g>
</g>
<g>
</g>
<g>
</g>
<g>
</g>
<g>
</g>
<g>
</g>
<g>
</g>
<g>
</g>
<g>
</g>
<g>
</g>
<g>
</g>
<g>
</g>
</svg>
